<svg xmlns="http://www.w3.org/2000/svg" width="24" height="24" viewBox="0 0 24 24" fill="none">
    <path fill-rule="evenodd" clip-rule="evenodd"
        d="M10.3838 11.7L4.33474 5.65098C3.88842 5.20466 3.88842 4.48105 4.33474 4.03473C4.78105 3.58842 5.50467 3.58842 5.95098 4.03473L12 10.0838L18.049 4.03473C18.4953 3.58842 19.219 3.58842 19.6653 4.03473C20.1116 4.48105 20.1116 5.20466 19.6653 5.65098L13.6162 11.7L19.6653 17.749C20.1116 18.1953 20.1116 18.9189 19.6653 19.3653C19.219 19.8116 18.4953 19.8116 18.049 19.3653L12 13.3162L5.95098 19.3653C5.50467 19.8116 4.78105 19.8116 4.33474 19.3653C3.88842 18.9189 3.88842 18.1953 4.33474 17.749L10.3838 11.7Z"
        fill="#F6F6F6" />
</svg>