<svg xmlns="http://www.w3.org/2000/svg" width="24" height="24" viewBox="0 0 24 24" fill="none">
    <mask id="mask0_703_42" style="mask-type:luminance" maskUnits="userSpaceOnUse" x="0" y="0"
        width="24" height="24">
        <rect width="24" height="24" rx="3" fill="white" />
    </mask>
    <g mask="url(#mask0_703_42)">
        <rect width="24" height="24" fill="#043CAE" />
        <path fill-rule="evenodd" clip-rule="evenodd"
            d="M11.0615 6.29901L12.0006 6.02398L12.9396 6.29901L12.6646 5.35999L12.9396 4.42096L12.0006 4.69599L11.0615 4.42096L11.3366 5.35999L11.0615 6.29901ZM11.0615 19.5789L12.0006 19.3039L12.9396 19.5789L12.6646 18.6399L12.9396 17.7009L12.0006 17.9759L11.0615 17.7009L11.3366 18.6399L11.0615 19.5789ZM18.6402 12.6641L17.7011 12.9391L17.9762 12.0001L17.7011 11.0611L18.6402 11.3361L19.5792 11.0611L19.3042 12.0001L19.5792 12.9391L18.6402 12.6641ZM4.42133 12.9391L5.36035 12.6641L6.29938 12.9391L6.02434 12.0001L6.29938 11.0611L5.36035 11.3361L4.42133 11.0611L4.69636 12.0001L4.42133 12.9391ZM17.7508 9.34402L16.8117 9.61906L17.0868 8.68003L16.8117 7.741L17.7508 8.01604L18.6898 7.741L18.4148 8.68003L18.6898 9.61906L17.7508 9.34402ZM5.31133 16.2589L6.25036 15.9839L7.18939 16.2589L6.91435 15.3199L7.18939 14.3808L6.25036 14.6559L5.31133 14.3808L5.58637 15.3199L5.31133 16.2589ZM15.3201 6.91369L14.381 7.18873L14.6561 6.2497L14.381 5.31067L15.3201 5.58571L16.2591 5.31067L15.984 6.2497L16.2591 7.18873L15.3201 6.91369ZM7.74143 18.6895L8.68046 18.4144L9.61949 18.6895L9.34445 17.7505L9.61949 16.8114L8.68046 17.0865L7.74143 16.8114L8.01647 17.7505L7.74143 18.6895ZM17.7508 15.9839L16.8117 16.2589L17.0868 15.3199L16.8117 14.3808L17.7508 14.6559L18.6898 14.3808L18.4148 15.3199L18.6898 16.2589L17.7508 15.9839ZM5.31133 9.61906L6.25036 9.34402L7.18939 9.61906L6.91435 8.68003L7.18939 7.741L6.25036 8.01604L5.31133 7.741L5.58637 8.68003L5.31133 9.61906ZM15.3201 18.4144L14.381 18.6895L14.6561 17.7505L14.381 16.8114L15.3201 17.0865L16.2591 16.8114L15.984 17.7505L16.2591 18.6895L15.3201 18.4144ZM7.74143 7.18873L8.68046 6.91369L9.61949 7.18873L9.34445 6.2497L9.61949 5.31067L8.68046 5.58571L7.74143 5.31067L8.01647 6.2497L7.74143 7.18873Z"
            fill="#FFD429" />
    </g>
</svg>